:SAMPLES-PER-SECOND 30
:FULLY-SPECIFIED
:DEGREES
48
root  78.071 39.4077 22.695 157.718 -87.5744 -157.745
RightUpLeg  -1.78942 -8.98711 -2.12467
RightLeg  16.2351 -1.92494 0.894079
RightFoot  -22.1179 0.289076 4.64293
RightToes  1.16414e-010 0 -3.6325e-017
Spine  1.959 -0.340702 7.19754
Spine1  8.45165 -0.193625 0.76924
HEad  -4.8028 -3.48515 0.278527
LeftShoulder1  7.30169 -7.8615 -55.7149
LeftArm  -1.76405 14.4529 -20.8575
LeftForeArm  35.3122 -25.2435 -3.50251
LeftHand  -0.244104 0.0205437 5.32207
RightShoulder  5.17319 8.17559 38.2388
RightArm  2.27317 -26.6193 31.681
RightForeArm  -7.14605 33.8269 7.93644
RightHand  -0.255581 -2.71832 -10.7323
LeftUpLeg  -3.89408 27.5291 10.1502
LeftLeg  22.9168 -21.8465 -9.49784
LeftFoot  -16.8422 -0.0030533 -2.16002
LeftToes  9.04034e-010 7.59002e-011 -1.12606e-011
49
root  77.766 39.0262 22.6234 132.882 -87.6551 -132.272
RightUpLeg  -3.48288 -10.2861 -1.05856
RightLeg  19.5018 -1.41666 0.45712
RightFoot  -23.5581 0.433926 5.54848
RightToes  1.16414e-010 0 -3.6325e-017
Spine  1.97849 -0.789538 8.75381
Spine1  8.73329 -0.583571 0.887074
HEad  -6.96003 -3.59203 -0.00314103
LeftShoulder1  7.19631 -8.38786 -53.1793
LeftArm  -5.84413 15.4552 -21.7769
LeftForeArm  34.683 -30.6748 -4.84746
LeftHand  -0.244104 0.0205437 5.32207
RightShoulder  5.17009 8.33861 37.6282
RightArm  -2.3088 -26.7748 33.1446
RightForeArm  -3.60255 39.8875 9.58349
RightHand  -0.207735 -3.39448 -11.4269
LeftUpLeg  -7.05969 23.6357 10.3521
LeftLeg  27.4901 -18.0934 -9.6478
LeftFoot  -18.2494 -0.0478079 -2.60652
LeftToes  9.04034e-010 7.59002e-011 -1.12606e-011
50
root  77.5179 38.4964 22.5728 105.582 -86.9043 -105.194
RightUpLeg  -5.13449 -11.896 0.510371
RightLeg  24.199 -0.504015 -0.213838
RightFoot  -24.7149 0.485818 5.57623
RightToes  1.16414e-010 0 -3.6325e-017
Spine  3.86066 -1.07056 10.5338
Spine1  8.32338 -0.730946 1.48548
HEad  -11.3151 -3.96233 -1.55997
LeftShoulder1  8.02613 -11.9891 -44.9778
LeftArm  -7.8719 22.2816 -27.1311
LeftForeArm  33.4426 -40.5125 -7.36286
LeftHand  -0.244104 0.0205437 5.32207
RightShoulder  5.2657 8.59696 37.4854
RightArm  -5.86056 -26.4585 34.211
RightForeArm  -3.26362 47.0114 12.2863
RightHand  -0.171965 -3.87241 -12.1652
LeftUpLeg  -10.1151 20.1311 11.4183
LeftLeg  33.5665 -14.6515 -9.92336
LeftFoot  -19.2895 -0.0736268 -2.72955
LeftToes  9.04034e-010 7.59002e-011 -1.12606e-011
51
root  77.3033 37.8892 22.5252 88.5578 -85.7834 -89.0559
RightUpLeg  -6.41794 -11.9311 1.99795
RightLeg  29.4535 -1.30751 -1.0954
RightFoot  -25.7129 0.403493 4.58964
RightToes  1.16414e-010 0 -3.6325e-017
Spine  6.91275 -1.20623 11.9646
Spine1  7.37599 -0.609642 2.36001
HEad  -14.5669 -3.2498 -0.912339
LeftShoulder1  7.67677 -11.1851 -45.5516
LeftArm  -7.67746 19.182 -28.0025
LeftForeArm  34.7056 -44.8021 -8.70075
LeftHand  -0.244104 0.0205437 5.32207
RightShoulder  5.65249 9.09888 38.7734
RightArm  -8.0673 -25.5841 33.455
RightForeArm  -2.12015 55.44 16.7507
RightHand  -0.130581 -4.32391 -12.7429
LeftUpLeg  -13.1271 17.4873 12.6912
LeftLeg  40.6209 -11.3821 -9.92704
LeftFoot  -19.8885 -0.0553651 -2.33719
LeftToes  9.04034e-010 7.59002e-011 -1.12606e-011
52
root  77.0579 37.2535 22.4738 75.5092 -84.6768 -76.998
RightUpLeg  -7.31483 -11.6611 3.17099
RightLeg  34.4921 -2.73461 -2.29712
RightFoot  -27.3888 0.319285 3.5829
RightToes  1.16414e-010 0 -3.6325e-017
Spine  10.0664 -1.57411 12.7417
Spine1  6.72768 -0.746659 3.53857
HEad  -16.2165 -4.19464 -0.315059
LeftShoulder1  8.05741 -11.5687 -46.6305
LeftArm  -9.45989 18.1483 -27.2651
LeftForeArm  31.6862 -50.16 -11.0104
LeftHand  -0.244104 0.0205437 5.32207
RightShoulder  6.07884 9.52956 40.4731
RightArm  -8.49179 -22.8107 32.1649
RightForeArm  4.57549 64.1745 23.949
RightHand  0.0149045 -5.70724 -12.4849
LeftUpLeg  -16.5239 15.631 13.6038
LeftLeg  47.9494 -8.3623 -9.41445
LeftFoot  -19.8179 -0.00628071 -1.6838
LeftToes  9.04034e-010 7.59002e-011 -1.12606e-011
53
root  76.6989 36.6414 22.4405 66.4814 -83.5157 -68.9008
RightUpLeg  -7.49619 -11.7647 4.09152
RightLeg  38.6294 -3.73432 -3.48764
RightFoot  -29.8086 0.344874 3.36078
RightToes  1.16414e-010 0 -3.6325e-017
Spine  12.6282 -2.16308 13.6806
Spine1  6.69514 -0.965098 4.02112
HEad  -19.8524 -2.43981 -2.15039
LeftShoulder1  8.24211 -11.7368 -47.1877
LeftArm  -9.65321 18.1834 -26.8946
LeftForeArm  33.9712 -57.9493 -15.0058
LeftHand  -0.244104 0.0205437 5.32207
RightShoulder  6.47836 9.76772 42.5141
RightArm  -7.40588 -17.8539 30.8439
RightForeArm  17.2598 71.8418 36.429
RightHand  0.168802 -7.3157 -11.6429
LeftUpLeg  -19.9724 14.5253 14.182
LeftLeg  54.4873 -6.31798 -8.99622
LeftFoot  -19.1024 0.037645 -1.13311
LeftToes  9.04034e-010 7.59002e-011 -1.12606e-011
54
root  76.1578 36.1769 22.4563 62.9344 -82.5126 -66.0897
RightUpLeg  -6.6833 -12.2098 4.61985
RightLeg  41.0299 -3.88647 -3.92569
RightFoot  -31.9094 0.440213 3.62292
RightToes  1.16414e-010 0 -3.6325e-017
Spine  14.4993 -2.65923 15.2783
Spine1  6.79195 -0.767138 3.12222
HEad  -28.4626 5.3583 -10.3934
LeftShoulder1  8.05916 -11.4464 -47.0303
LeftArm  -10.3278 19.3016 -27.2545
LeftForeArm  42.7802 -67.5652 -23.3478
LeftHand  -0.244104 0.0205437 5.32207
RightShoulder  6.65653 9.73297 43.8724
RightArm  -5.80835 -12.2091 30.7323
RightForeArm  41.1656 77.4022 60.2477
RightHand  0.235795 -8.36194 -10.4058
LeftUpLeg  -22.856 14.3366 14.4139
LeftLeg  58.9811 -5.52952 -9.34968
LeftFoot  -18.3378 0.0567547 -0.873958
LeftToes  9.04034e-010 7.59002e-011 -1.12606e-011
55
root  75.3835 36.0062 22.5225 63.7932 -82.1636 -66.9548
RightUpLeg  -5.13021 -12.8459 4.41621
RightLeg  40.9702 -3.227 -3.31954
RightFoot  -33.0311 0.528183 3.93173
RightToes  1.16414e-010 0 -3.6325e-017
Spine  15.3372 -2.55829 17.1938
Spine1  6.53582 0.252692 0.735739
HEad  -28.2887 4.10638 -8.18533
LeftShoulder1  7.94806 -11.2348 -47.0465
LeftArm  -11.59 22.2828 -27.5192
LeftForeArm  65.6752 -77.0841 -45.1483
LeftHand  -0.244104 0.0205437 5.32207
RightShoulder  6.65366 9.67266 44.0622
RightArm  -4.49226 -8.05788 31.9513
RightForeArm  81.665 79.0623 98.0336
RightHand  0.260434 -9.58149 -8.31825
LeftUpLeg  -25.111 15.3609 13.865
LeftLeg  60.569 -5.66022 -10.2146
LeftFoot  -18.112 0.0543061 -0.918072
LeftToes  9.04034e-010 7.59002e-011 -1.12606e-011
56
root  74.3259 36.2175 22.6072 66.201 -82.9264 -68.0132
RightUpLeg  -3.28293 -13.4312 3.1391
RightLeg  38.0117 -2.21194 -2.15991
RightFoot  -33.0961 0.590962 4.24995
RightToes  1.16414e-010 0 -3.6325e-017
Spine  14.4471 -1.45089 18.1697
Spine1  6.11859 1.96069 -2.41557
HEad  -26.8944 2.96723 -5.62411
LeftShoulder1  8.02263 -11.3013 -47.2804
LeftArm  -12.0087 26.4309 -27.1438
LeftForeArm  117.397 -80.7854 -97.6118
LeftHand  -0.244104 0.0205437 5.32207
RightShoulder  6.70468 9.8821 43.688
RightArm  -3.43835 -6.40914 33.205
RightForeArm  116.415 76.7305 127.599
RightHand  0.235475 -10.6523 -6.16483
LeftUpLeg  -27.0862 17.7251 11.7581
LeftLeg  58.8387 -6.46316 -10.8889
LeftFoot  -18.1583 0.051014 -0.971744
LeftToes  9.04034e-010 7.59002e-011 -1.12606e-011
57
root  73.0033 36.7627 22.6817 64.5821 -84.8629 -63.78
RightUpLeg  -1.33331 -14.0206 0.722632
RightLeg  32.5449 -1.16355 -1.09169
RightFoot  -31.4475 0.564371 4.37988
RightToes  1.16414e-010 0 -3.6325e-017
Spine  11.8787 0.503885 16.9598
Spine1  5.71988 3.81298 -5.23123
HEad  -25.643 1.32849 -2.86969
LeftShoulder1  7.92961 -11.2483 -46.8884
LeftArm  -10.9566 30.8119 -26.6477
LeftForeArm  152.26 -77.2175 -134.463
LeftHand  -0.244104 0.0205437 5.32207
RightShoulder  6.79935 10.1988 43.2579
RightArm  -1.79627 -6.80538 33.7098
RightForeArm  133.597 73.6248 141.247
RightHand  0.188852 -10.4797 -5.37268
LeftUpLeg  -28.9088 20.9941 7.65269
LeftLeg  54.1594 -7.87091 -11.087
LeftFoot  -17.9174 0.0632743 -0.767782
LeftToes  9.04034e-010 7.59002e-011 -1.12606e-011
58
root  71.5406 37.4542 22.7681 44.1648 -86.9875 -40.4981
RightUpLeg  0.783512 -14.595 -2.38889
RightLeg  26.2808 -0.389438 -0.31911
RightFoot  -27.4916 0.445764 4.4577
RightToes  1.16414e-010 0 -3.6325e-017
Spine  8.91335 2.39001 14.0027
Spine1  5.09023 5.30374 -7.36963
HEad  -24.0995 -0.699198 -0.30753
LeftShoulder1  7.6115 -11.0059 -45.729
LeftArm  -9.03912 34.9639 -26.0272
LeftForeArm  163.914 -72.7958 -148.085
LeftHand  -0.244104 0.0205437 5.32207
RightShoulder  6.70723 10.2245 42.548
RightArm  1.10343 -8.17259 34.0051
RightForeArm  139.685 71.5673 146.59
RightHand  0.161868 -9.99187 -5.22321
LeftUpLeg  -30.2046 24.028 2.37626
LeftLeg  48.0324 -9.67556 -10.9377
LeftFoot  -17.7332 0.0723166 -0.61007
LeftToes  9.04034e-010 7.59002e-011 -1.12606e-011
59
root  70.0673 38.0826 22.9273 -0.0767605 -87.4872 5.69069
RightUpLeg  3.08734 -14.512 -5.37989
RightLeg  21.5553 -0.481209 0.246926
RightFoot  -22.3596 0.394838 5.73355
RightToes  1.16414e-010 0 -3.6325e-017
Spine  6.97094 3.4178 11.4701
Spine1  4.43785 6.29471 -9.53198
HEad  -22.478 -3.0303 1.45484
LeftShoulder1  7.49646 -11.0524 -44.8643
LeftArm  -7.69941 38.2398 -24.8185
LeftForeArm  168.397 -68.9429 -154.616
LeftHand  -0.244104 0.0205437 5.32207
RightShoulder  6.44273 9.99347 41.503
RightArm  4.72342 -9.45615 34.4692
RightForeArm  142.406 70.9484 148.074
RightHand  0.125035 -10.4673 -4.03791
LeftUpLeg  -30.2769 25.5346 -2.11798
LeftLeg  42.2714 -11.4632 -10.6003
LeftFoot  -18.1448 0.0521753 -0.94805
LeftToes  9.04034e-010 7.59002e-011 -1.12606e-011
60
root  68.6463 38.5001 23.1871 -21.7351 -86.6009 28.0457
RightUpLeg  4.81409 -14.7188 -7.58508
RightLeg  20.4663 -0.185171 0.313651
RightFoot  -17.8096 0.371671 8.77119
RightToes  1.16414e-010 0 -3.6325e-017
Spine  6.33509 3.69763 10.7027
Spine1  4.53489 6.99158 -11.9342
HEad  -21.793 -5.05926 1.97562
LeftShoulder1  7.7941 -11.5511 -45.109
LeftArm  -8.04429 39.9606 -23.7468
LeftForeArm  169.561 -66.1099 -157.866
LeftHand  -0.244104 0.0205437 5.32207
RightShoulder  6.29422 9.93468 40.6627
RightArm  8.14335 -10.1274 34.3837
RightForeArm  144.866 71.4764 147.499
RightHand  0.0448395 -10.9722 -2.06766
LeftUpLeg  -28.8809 25.2321 -4.53883
LeftLeg  37.8001 -12.9653 -10.2402
LeftFoot  -18.2722 0.0246586 -1.41862
LeftToes  9.04034e-010 7.59002e-011 -1.12606e-011
61
root  67.2762 38.6346 23.5202 -26.9719 -86.1452 33.3031
RightUpLeg  4.30585 -13.8584 -8.75966
RightLeg  24.6059 -0.242766 -0.433849
RightFoot  -13.4777 0.122619 11.3392
RightToes  1.16414e-010 0 -3.6325e-017
Spine  6.45082 3.71133 10.4969
Spine1  5.17152 7.42206 -13.4192
HEad  -22.0665 -6.04853 1.74577
LeftShoulder1  8.13131 -11.9877 -45.7654
LeftArm  -9.65805 40.3731 -24.2846
LeftForeArm  170.658 -64.1105 -159.829
LeftHand  -0.244104 0.0205437 5.32207
RightShoulder  6.35893 10.2039 40.2385
RightArm  11.2227 -10.5838 33.3346
RightForeArm  144.824 72.6875 145.175
RightHand  -0.0296515 -10.3455 -0.594428
LeftUpLeg  -26.653 24.1115 -5.52283
LeftLeg  34.7391 -14.0494 -9.9354
LeftFoot  -16.8725 0.0547144 -0.886564
LeftToes  9.04034e-010 7.59002e-011 -1.12606e-011
62
root  65.9407 38.4869 23.8701 -37.4222 -86.0779 43.554
RightUpLeg  0.726845 -9.7242 -9.28871
RightLeg  34.0314 -2.04585 -1.74549
RightFoot  -7.65323 -0.364269 10.3481
RightToes  1.16414e-010 0 -3.6325e-017
Spine  7.32229 3.64436 9.02896
Spine1  5.10308 7.34197 -13.1939
HEad  -22.4996 -5.72416 1.63917
LeftShoulder1  8.16785 -12.0176 -45.8847
LeftArm  -11.537 39.1302 -26.5186
LeftForeArm  171.687 -63.7651 -160.211
LeftHand  -0.244104 0.0205437 5.32207
RightShoulder  6.45453 10.492 39.9799
RightArm  13.7808 -11.5183 32.3266
RightForeArm  139.403 74.6822 139.489
RightHand  -0.0638044 -9.52809 0.306738
LeftUpLeg  -24.3584 23.2853 -6.25187
LeftLeg  33.5553 -14.1137 -9.54952
LeftFoot  -14.976 0.129715 1.27936
LeftToes  9.04034e-010 7.59002e-011 -1.12606e-011
